<?xml version="1.0" standalone="no"?>
<!DOCTYPE svg PUBLIC "-//W3C//DTD SVG 20010904//EN"
 "http://www.w3.org/TR/2001/REC-SVG-20010904/DTD/svg10.dtd">
<svg version="1.0" xmlns="http://www.w3.org/2000/svg"
 width="517.000000pt" height="517.000000pt" viewBox="0 0 517.000000 517.000000"
 preserveAspectRatio="xMidYMid meet">
<metadata>
Created by potrace 1.11, written by Peter Selinger 2001-2013
</metadata>
<g transform="translate(0.000000,517.000000) scale(0.100000,-0.100000)"
fill="#000000" stroke="none">
<path d="M900 5143 c-148 -26 -256 -64 -370 -131 -239 -140 -401 -352 -479
-626 l-25 -91 -4 -1660 c-2 -1224 0 -1680 8 -1735 16 -103 71 -263 120 -349
149 -262 395 -441 691 -501 97 -20 127 -20 1771 -17 l1673 2 85 23 c118 31
289 118 386 195 166 133 301 341 356 552 l23 90 0 1695 0 1695 -23 83 c-43
157 -72 221 -159 348 -135 199 -324 329 -588 406 l-80 23 -1680 1 c-924 1
-1691 -1 -1705 -3z m3453 -236 c274 -97 455 -277 546 -545 l26 -77 3 -1655 c2
-1485 1 -1663 -13 -1735 -32 -156 -107 -297 -220 -411 -109 -110 -217 -174
-362 -216 l-78 -23 -1680 0 -1680 0 -75 23 c-271 85 -469 282 -561 557 l-24
70 -2 1665 -3 1666 25 99 c62 247 243 456 478 553 153 64 48 61 1877 59 l1665
-2 78 -28z"/>
<path d="M4085 4628 c-63 -23 -115 -69 -148 -131 -21 -40 -22 -54 -22 -272 0
-205 2 -234 19 -265 26 -49 64 -88 111 -113 37 -20 57 -22 262 -25 202 -3 226
-2 266 16 63 28 112 75 136 133 21 47 22 63 19 267 -3 240 -8 262 -73 327 -66
65 -87 70 -325 72 -137 1 -226 -2 -245 -9z m418 -212 c15 -12 17 -33 17 -188
0 -122 -4 -178 -12 -186 -8 -8 -65 -12 -190 -12 -165 0 -178 1 -188 19 -6 11
-10 89 -10 181 0 92 4 170 10 181 10 18 23 19 183 19 127 -1 177 -4 190 -14z"/>
<path d="M2475 4124 c-407 -46 -689 -171 -955 -424 l-85 -81 -442 1 c-288 1
-456 -3 -482 -10 -22 -6 -49 -22 -61 -37 l-20 -26 2 -1301 3 -1301 27 -73 c72
-198 222 -344 413 -405 l70 -22 1635 0 c1583 0 1637 1 1695 19 223 71 388 247
440 470 20 84 22 2586 2 2626 -7 14 -28 33 -47 43 -32 16 -73 17 -488 16
l-453 -1 -87 82 c-208 197 -477 339 -748 395 -125 26 -322 39 -419 29z m348
-229 c195 -35 409 -132 573 -260 151 -118 303 -308 384 -480 193 -411 164
-888 -79 -1275 -79 -127 -233 -286 -364 -378 -389 -272 -902 -315 -1321 -111
-45 21 -90 45 -101 52 -84 52 -151 101 -214 156 -63 56 -99 94 -187 204 -25
31 -98 149 -128 207 -42 79 -93 235 -113 342 -20 109 -22 356 -4 458 88 490
438 892 906 1043 98 31 184 48 310 61 68 7 246 -3 338 -19z m-1557 -510 c-9
-14 -23 -35 -30 -47 -35 -54 -109 -238 -135 -336 -43 -159 -54 -241 -54 -407
-1 -328 83 -604 270 -882 54 -81 250 -289 319 -339 237 -171 446 -260 714
-305 98 -16 354 -16 455 0 669 106 1181 611 1292 1276 20 120 22 365 3 475
-31 189 -121 443 -190 539 -11 16 -20 34 -20 40 0 8 93 11 315 11 l315 0 -2
-1222 -3 -1223 -31 -65 c-41 -84 -127 -170 -213 -213 l-66 -32 -1600 -3
c-1148 -2 -1613 0 -1645 8 -106 27 -225 128 -282 240 l-33 65 -3 1223 -2 1222
321 0 321 0 -16 -25z"/>
<path d="M2495 3713 c-136 -16 -200 -29 -284 -58 -375 -131 -656 -451 -734
-835 -61 -296 1 -613 168 -865 44 -67 183 -216 231 -249 17 -11 60 -41 94 -65
35 -24 103 -61 152 -82 306 -133 647 -127 947 16 163 78 318 206 424 349 54
72 143 258 172 359 114 403 -7 840 -313 1129 -76 72 -216 168 -295 203 -177
78 -402 117 -562 98z m295 -228 c211 -51 428 -201 549 -378 50 -74 107 -202
131 -296 123 -486 -176 -983 -670 -1112 -121 -32 -320 -32 -440 -1 -198 52
-375 167 -499 325 -292 372 -258 895 81 1223 143 139 318 225 518 255 77 11
253 3 330 -16z"/>
</g>
</svg>
